<svg xmlns="http://www.w3.org/2000/svg" viewBox="0 0 473.336 103"><defs><style>.cls-1{isolation:isolate;}.cls-2,.cls-5{fill:#25a9e1;}.cls-3,.cls-5{mix-blend-mode:multiply;}.cls-4{fill:#c0d34b;}</style></defs><title>Asset 1</title><g id="Layer_2" data-name="Layer 2"><g id="Layer_1-2" data-name="Layer 1"><g class="cls-1"><path class="cls-2" d="M302.336,1c2.75,0,7.246.135,9.991.3,0,0,45.009,2.7,45.009,49.7s-45.009,49.7-45.009,49.7c-2.745.165-7.241.3-9.991.3h-29a5.015,5.015,0,0,1-5-5V6a5.015,5.015,0,0,1,5-5Z"/><circle class="cls-2" cx="422.336" cy="51" r="51"/><g class="cls-3"><rect class="cls-4" x="106.053" y="1" width="26.27" height="100" rx="4.603" ry="4.603"/></g><g class="cls-3"><path class="cls-4" d="M4.992,59.447a5,5,0,0,0-4.992,5v.692C0,86.249,18.661,103,44.045,103,74.161,103,88.1,84.665,88.1,58.447V6a5.015,5.015,0,0,0-5-5H25.825a5.015,5.015,0,0,0-5,5V21.332a5.015,5.015,0,0,0,5,5h31a5.015,5.015,0,0,1,5,5V60C61.828,67,56.161,79,43.545,79c-7.718,0-14.864-6.121-16.932-13.651l-.395-1.165a7.471,7.471,0,0,0-6.605-4.735Z"/></g><path class="cls-4" d="M245.838,101a4.544,4.544,0,0,0,3.22-1.354L157.819,2.584a4.485,4.485,0,0,0-5.41-1.006,4.08,4.08,0,0,0-2.063,3.912l-.01,90.985A4.539,4.539,0,0,0,154.861,101Z"/><path class="cls-5" d="M151.63,99.628A4.507,4.507,0,0,0,154.861,101h90.977a4.511,4.511,0,0,0,4.5-4.5V5.2a4.19,4.19,0,0,0-7.3-2.823Z"/></g></g></g></svg>